<svg xmlns="http://www.w3.org/2000/svg" xmlns:xlink="http://www.w3.org/1999/xlink" viewBox="0 0 896.43 152.43"><defs><style>.cls-1,.cls-11,.cls-12,.cls-15,.cls-16,.cls-19,.cls-20,.cls-23,.cls-24,.cls-27,.cls-28,.cls-29,.cls-32,.cls-5,.cls-6{fill:none;}.cls-2{clip-path:url(#clip-path);}.cls-3{fill:#fff;}.cls-4{clip-path:url(#clip-path-2);}.cls-11,.cls-15,.cls-19,.cls-23,.cls-5{stroke:#f3a065;}.cls-11,.cls-12,.cls-15,.cls-16,.cls-19,.cls-20,.cls-23,.cls-24,.cls-5,.cls-6{stroke-linecap:square;}.cls-11,.cls-12,.cls-15,.cls-16,.cls-19,.cls-20,.cls-23,.cls-24,.cls-27,.cls-28,.cls-29,.cls-32,.cls-5,.cls-6{stroke-linejoin:round;}.cls-5,.cls-6{stroke-width:1px;}.cls-12,.cls-16,.cls-20,.cls-24,.cls-29,.cls-6{stroke:#5999b6;}.cls-7{clip-path:url(#clip-path-48);}.cls-8{clip-path:url(#clip-path-49);}.cls-9{clip-path:url(#clip-path-95);}.cls-10{clip-path:url(#clip-path-96);}.cls-11,.cls-12{stroke-width:0.89px;}.cls-13{clip-path:url(#clip-path-144);}.cls-14{clip-path:url(#clip-path-145);}.cls-15,.cls-16{stroke-width:0.89px;}.cls-17{clip-path:url(#clip-path-193);}.cls-18{clip-path:url(#clip-path-194);}.cls-19,.cls-20{stroke-width:0.88px;}.cls-21{clip-path:url(#clip-path-242);}.cls-22{clip-path:url(#clip-path-243);}.cls-23,.cls-24{stroke-width:1.19px;}.cls-25{clip-path:url(#clip-path-271);}.cls-26{clip-path:url(#clip-path-272);}.cls-27{stroke:#ea9c64;}.cls-27,.cls-28,.cls-29,.cls-32{stroke-linecap:round;}.cls-28{stroke:#7b6079;}.cls-30{font-size:12px;}.cls-30,.cls-33,.cls-35{fill:#231815;}.cls-30,.cls-35{font-family:ArialMT, Arial;}.cls-31{letter-spacing:-0.06em;}.cls-32{stroke:#231815;}.cls-34{letter-spacing:-0.11em;}.cls-35{font-size:10px;}</style><clipPath id="clip-path"><rect class="cls-1" x="715.23" y="14.56" width="187.72" height="187.72"/></clipPath><clipPath id="clip-path-2"><rect class="cls-1" x="720.05" y="19.38" width="178.08" height="178.08"/></clipPath><clipPath id="clip-path-48"><rect class="cls-1" x="789.6" y="14.67" width="187.72" height="187.72"/></clipPath><clipPath id="clip-path-49"><rect class="cls-1" x="794.42" y="19.49" width="178.08" height="178.08"/></clipPath><clipPath id="clip-path-95"><rect class="cls-1" x="146.89" y="-23.97" width="167.21" height="167.21"/></clipPath><clipPath id="clip-path-96"><rect class="cls-1" x="151.18" y="-19.68" width="158.63" height="158.63"/></clipPath><clipPath id="clip-path-144"><rect class="cls-1" x="21.01" y="-23.97" width="167.21" height="167.21"/></clipPath><clipPath id="clip-path-145"><rect class="cls-1" x="25.31" y="-19.68" width="158.63" height="158.63"/></clipPath><clipPath id="clip-path-193"><rect class="cls-1" x="-68.53" y="-23.97" width="164.66" height="164.66"/></clipPath><clipPath id="clip-path-194"><rect class="cls-1" x="-64.3" y="-19.74" width="156.21" height="156.21"/></clipPath><clipPath id="clip-path-242"><rect class="cls-1" x="261.13" y="-48.99" width="223.36" height="223.36"/></clipPath><clipPath id="clip-path-243"><rect class="cls-1" x="266.86" y="-43.25" width="211.89" height="211.89"/></clipPath><clipPath id="clip-path-271"><rect class="cls-1" x="356.9" y="-49.39" width="223.36" height="223.36"/></clipPath><clipPath id="clip-path-272"><rect class="cls-1" x="362.63" y="-43.65" width="211.89" height="211.89"/></clipPath></defs><g id="图层_7" data-name="图层 7"><g class="cls-2"><rect class="cls-3" x="715.23" y="14.56" width="187.72" height="187.72"/><rect class="cls-3" x="720.05" y="19.38" width="178.08" height="178.08"/><g class="cls-4"><line class="cls-5" x1="726.44" y1="98.53" x2="740.02" y2="107.19"/></g><g class="cls-4"><line class="cls-5" x1="740.02" y1="107.19" x2="745.32" y2="109.3"/></g><g class="cls-4"><line class="cls-5" x1="745.32" y1="109.3" x2="745.68" y2="109.14"/></g><g class="cls-4"><line class="cls-5" x1="745.68" y1="109.14" x2="744.44" y2="107.43"/></g><g class="cls-4"><line class="cls-5" x1="726.44" y1="98.53" x2="743.69" y2="103.97"/></g><g class="cls-4"><line class="cls-5" x1="743.69" y1="103.97" x2="751.07" y2="106.12"/></g><g class="cls-4"><line class="cls-5" x1="751.07" y1="106.12" x2="751.08" y2="105.89"/></g><g class="cls-4"><line class="cls-5" x1="751.08" y1="105.89" x2="748.22" y2="104.46"/></g><g class="cls-4"><line class="cls-5" x1="726.44" y1="98.53" x2="746.26" y2="100.33"/></g><g class="cls-4"><line class="cls-5" x1="746.26" y1="100.33" x2="754.27" y2="101.94"/></g><g class="cls-4"><line class="cls-5" x1="754.27" y1="101.94" x2="753.55" y2="102.05"/></g><g class="cls-4"><line class="cls-5" x1="753.55" y1="102.05" x2="750.41" y2="101.47"/></g><g class="cls-4"><line class="cls-5" x1="726.44" y1="98.53" x2="746.59" y2="95.99"/></g><g class="cls-4"><line class="cls-5" x1="746.59" y1="95.99" x2="751.91" y2="96.38"/></g><g class="cls-4"><line class="cls-5" x1="751.91" y1="96.38" x2="750.99" y2="96.5"/></g><g class="cls-4"><line class="cls-5" x1="750.99" y1="96.5" x2="748.65" y2="96.77"/></g><g class="cls-4"><line class="cls-5" x1="726.44" y1="98.53" x2="737.11" y2="92.66"/></g><g class="cls-4"><line class="cls-5" x1="737.11" y1="92.66" x2="742.67" y2="91.24"/></g><g class="cls-4"><line class="cls-5" x1="742.67" y1="91.24" x2="746.2" y2="89.52"/></g><g class="cls-4"><line class="cls-5" x1="737.11" y1="92.66" x2="746.59" y2="95.99"/></g><g class="cls-4"><line class="cls-5" x1="746.59" y1="95.99" x2="746.26" y2="100.33"/></g><g class="cls-4"><line class="cls-5" x1="746.26" y1="100.33" x2="743.69" y2="103.97"/></g><g class="cls-4"><line class="cls-5" x1="743.69" y1="103.97" x2="740.02" y2="107.19"/></g><g class="cls-4"><line class="cls-6" x1="761.63" y1="28.93" x2="768.54" y2="33.02"/></g><g class="cls-4"><line class="cls-6" x1="768.54" y1="33.02" x2="770.26" y2="39.16"/></g><g class="cls-4"><line class="cls-6" x1="770.26" y1="39.16" x2="768.8" y2="40.76"/></g><g class="cls-4"><line class="cls-6" x1="768.8" y1="40.76" x2="767.39" y2="39.51"/></g><g class="cls-4"><line class="cls-6" x1="761.63" y1="28.93" x2="773.75" y2="31.93"/></g><g class="cls-4"><line class="cls-6" x1="773.75" y1="31.93" x2="776.09" y2="39.11"/></g><g class="cls-4"><line class="cls-6" x1="776.09" y1="39.11" x2="773.64" y2="42.16"/></g><g class="cls-4"><line class="cls-6" x1="773.64" y1="42.16" x2="771.25" y2="41.22"/></g><g class="cls-4"><line class="cls-6" x1="761.63" y1="28.93" x2="778.43" y2="31.42"/></g><g class="cls-4"><line class="cls-6" x1="778.43" y1="31.42" x2="782.92" y2="37.52"/></g><g class="cls-4"><line class="cls-6" x1="782.92" y1="37.52" x2="779.65" y2="41.44"/></g><g class="cls-4"><line class="cls-6" x1="779.65" y1="41.44" x2="776.29" y2="41.15"/></g><g class="cls-4"><line class="cls-6" x1="761.63" y1="28.93" x2="782.11" y2="32.59"/></g><g class="cls-4"><line class="cls-6" x1="782.11" y1="32.59" x2="787.41" y2="35.99"/></g><g class="cls-4"><line class="cls-6" x1="787.41" y1="35.99" x2="787.75" y2="40.89"/></g><g class="cls-4"><line class="cls-6" x1="787.75" y1="40.89" x2="786.58" y2="45.45"/></g><g class="cls-4"><line class="cls-6" x1="761.63" y1="28.93" x2="776.13" y2="38.68"/></g><g class="cls-4"><line class="cls-6" x1="776.13" y1="38.68" x2="779.14" y2="41.08"/></g><g class="cls-4"><line class="cls-6" x1="779.14" y1="41.08" x2="778.36" y2="41.91"/></g><g class="cls-4"><line class="cls-6" x1="776.13" y1="38.68" x2="782.11" y2="32.59"/></g><g class="cls-4"><line class="cls-6" x1="782.11" y1="32.59" x2="778.43" y2="31.42"/></g><g class="cls-4"><line class="cls-6" x1="778.43" y1="31.42" x2="773.75" y2="31.93"/></g><g class="cls-4"><line class="cls-6" x1="773.75" y1="31.93" x2="768.54" y2="33.02"/></g></g><g class="cls-7"><rect class="cls-3" x="789.6" y="14.67" width="187.72" height="187.72"/><rect class="cls-3" x="794.42" y="19.49" width="178.08" height="178.08"/><g class="cls-8"><line class="cls-5" x1="801.15" y1="98.55" x2="814.81" y2="107.1"/></g><g class="cls-8"><line class="cls-5" x1="814.81" y1="107.1" x2="820.14" y2="109.14"/></g><g class="cls-8"><line class="cls-5" x1="820.14" y1="109.14" x2="820.46" y2="108.94"/></g><g class="cls-8"><line class="cls-5" x1="820.46" y1="108.94" x2="819.18" y2="107.23"/></g><g class="cls-8"><line class="cls-5" x1="801.15" y1="98.55" x2="818.45" y2="103.85"/></g><g class="cls-8"><line class="cls-5" x1="818.45" y1="103.85" x2="825.86" y2="105.92"/></g><g class="cls-8"><line class="cls-5" x1="825.86" y1="105.92" x2="825.85" y2="105.68"/></g><g class="cls-8"><line class="cls-5" x1="825.85" y1="105.68" x2="823.02" y2="104.28"/></g><g class="cls-8"><line class="cls-5" x1="801.15" y1="98.55" x2="820.98" y2="100.2"/></g><g class="cls-8"><line class="cls-5" x1="820.98" y1="100.2" x2="828.84" y2="101.72"/></g><g class="cls-8"><line class="cls-5" x1="828.84" y1="101.72" x2="828.02" y2="101.81"/></g><g class="cls-8"><line class="cls-5" x1="828.02" y1="101.81" x2="824.9" y2="101.27"/></g><g class="cls-8"><line class="cls-5" x1="801.15" y1="98.55" x2="821.27" y2="95.86"/></g><g class="cls-8"><line class="cls-5" x1="821.27" y1="95.86" x2="826.46" y2="96.17"/></g><g class="cls-8"><line class="cls-5" x1="826.46" y1="96.17" x2="826.02" y2="96.31"/></g><g class="cls-8"><line class="cls-5" x1="826.02" y1="96.31" x2="824.51" y2="96.65"/></g><g class="cls-8"><line class="cls-5" x1="801.15" y1="98.55" x2="811.25" y2="92.84"/></g><g class="cls-8"><line class="cls-5" x1="811.25" y1="92.84" x2="816.34" y2="91.41"/></g><g class="cls-8"><line class="cls-5" x1="816.34" y1="91.41" x2="819.47" y2="89.65"/></g><g class="cls-8"><line class="cls-5" x1="811.25" y1="92.84" x2="821.27" y2="95.86"/></g><g class="cls-8"><line class="cls-5" x1="821.27" y1="95.86" x2="820.98" y2="100.2"/></g><g class="cls-8"><line class="cls-5" x1="820.98" y1="100.2" x2="818.45" y2="103.85"/></g><g class="cls-8"><line class="cls-5" x1="818.45" y1="103.85" x2="814.81" y2="107.1"/></g><g class="cls-8"><line class="cls-6" x1="840.45" y1="33.96" x2="850.44" y2="33.84"/></g><g class="cls-8"><line class="cls-6" x1="850.44" y1="33.84" x2="850.39" y2="39.68"/></g><g class="cls-8"><line class="cls-6" x1="850.39" y1="39.68" x2="847.49" y2="41.59"/></g><g class="cls-8"><line class="cls-6" x1="847.49" y1="41.59" x2="845.81" y2="40.55"/></g><g class="cls-8"><line class="cls-6" x1="840.45" y1="33.96" x2="855.33" y2="34.52"/></g><g class="cls-8"><line class="cls-6" x1="855.33" y1="34.52" x2="856.15" y2="40.57"/></g><g class="cls-8"><line class="cls-6" x1="856.15" y1="40.57" x2="851.74" y2="43.73"/></g><g class="cls-8"><line class="cls-6" x1="851.74" y1="43.73" x2="849.04" y2="42.92"/></g><g class="cls-8"><line class="cls-6" x1="840.45" y1="33.96" x2="859.34" y2="35.86"/></g><g class="cls-8"><line class="cls-6" x1="859.34" y1="35.86" x2="863.29" y2="40.39"/></g><g class="cls-8"><line class="cls-6" x1="863.29" y1="40.39" x2="860.15" y2="45.37"/></g><g class="cls-8"><line class="cls-6" x1="860.15" y1="45.37" x2="855.84" y2="49.1"/></g><g class="cls-8"><line class="cls-6" x1="840.45" y1="33.96" x2="861.53" y2="38.94"/></g><g class="cls-8"><line class="cls-6" x1="861.53" y1="38.94" x2="865.1" y2="42.73"/></g><g class="cls-8"><line class="cls-6" x1="865.1" y1="42.73" x2="862.82" y2="46.98"/></g><g class="cls-8"><line class="cls-6" x1="862.82" y1="46.98" x2="859.26" y2="50.55"/></g><g class="cls-8"><line class="cls-6" x1="840.45" y1="33.96" x2="853.04" y2="45.09"/></g><g class="cls-8"><line class="cls-6" x1="853.04" y1="45.09" x2="857.58" y2="47.52"/></g><g class="cls-8"><line class="cls-6" x1="857.58" y1="47.52" x2="859.87" y2="48.79"/></g><g class="cls-8"><line class="cls-6" x1="853.04" y1="45.09" x2="861.53" y2="38.94"/></g><g class="cls-8"><line class="cls-6" x1="861.53" y1="38.94" x2="859.34" y2="35.86"/></g><g class="cls-8"><line class="cls-6" x1="859.34" y1="35.86" x2="855.33" y2="34.52"/></g><g class="cls-8"><line class="cls-6" x1="855.33" y1="34.52" x2="850.44" y2="33.84"/></g></g></g><g id="图层_1" data-name="图层 1"><g class="cls-9"><rect class="cls-3" x="146.89" y="-23.97" width="167.21" height="167.21"/><rect class="cls-3" x="151.18" y="-19.68" width="158.63" height="158.63"/><g class="cls-10"><line class="cls-11" x1="231.41" y1="70.32" x2="232.72" y2="58.23"/></g><g class="cls-10"><line class="cls-11" x1="232.72" y1="58.23" x2="233.7" y2="49.28"/></g><g class="cls-10"><line class="cls-11" x1="234.02" y1="46.37" x2="233.7" y2="49.28"/></g><g class="cls-10"><line class="cls-11" x1="234.14" y1="40.6" x2="234.02" y2="46.37"/></g><g class="cls-10"><line class="cls-11" x1="235.88" y1="54.48" x2="233.7" y2="49.28"/></g><g class="cls-10"><line class="cls-11" x1="237.31" y1="64.69" x2="235.88" y2="54.48"/></g><g class="cls-10"><line class="cls-11" x1="234.71" y1="72.71" x2="237.31" y2="64.69"/></g><g class="cls-10"><line class="cls-11" x1="234.1" y1="74.91" x2="234.71" y2="72.71"/></g><g class="cls-10"><line class="cls-11" x1="229.33" y1="47.53" x2="233.7" y2="49.28"/></g><g class="cls-10"><line class="cls-11" x1="225.55" y1="55.06" x2="229.33" y2="47.53"/></g><g class="cls-10"><line class="cls-11" x1="218.88" y1="58.92" x2="225.55" y2="55.06"/></g><g class="cls-10"><line class="cls-11" x1="215.96" y1="60.85" x2="218.88" y2="58.92"/></g><g class="cls-10"><line class="cls-11" x1="232.85" y1="71.52" x2="231.41" y2="70.32"/></g><g class="cls-10"><line class="cls-11" x1="234.02" y1="81.95" x2="232.85" y2="71.52"/></g><g class="cls-10"><line class="cls-11" x1="236.44" y1="95.28" x2="234.02" y2="81.95"/></g><g class="cls-10"><line class="cls-11" x1="234.75" y1="99.37" x2="236.44" y2="95.28"/></g><g class="cls-10"><line class="cls-11" x1="229.66" y1="70.07" x2="231.41" y2="70.32"/></g><g class="cls-10"><line class="cls-11" x1="226.82" y1="75.91" x2="229.66" y2="70.07"/></g><g class="cls-10"><line class="cls-11" x1="232.9" y1="91.29" x2="226.82" y2="75.91"/></g><g class="cls-10"><line class="cls-11" x1="228.96" y1="94.25" x2="232.9" y2="91.29"/></g><g class="cls-10"><line class="cls-11" x1="233.59" y1="78.13" x2="234.13" y2="78.21"/></g><g class="cls-10"><line class="cls-11" x1="234.13" y1="78.21" x2="234.1" y2="74.91"/></g><g class="cls-10"><line class="cls-11" x1="213.73" y1="61.6" x2="214.85" y2="59.97"/></g><g class="cls-10"><line class="cls-11" x1="214.85" y1="59.97" x2="215.96" y2="60.85"/></g><g class="cls-10"><line class="cls-12" x1="195.28" y1="64.8" x2="195.3" y2="54.14"/></g><g class="cls-10"><line class="cls-12" x1="195.3" y1="54.14" x2="195.36" y2="46.25"/></g><g class="cls-10"><line class="cls-12" x1="195.39" y1="43.68" x2="195.36" y2="46.25"/></g><g class="cls-10"><line class="cls-12" x1="195.38" y1="38.9" x2="195.39" y2="43.68"/></g><g class="cls-10"><line class="cls-12" x1="198.77" y1="44.3" x2="195.36" y2="46.25"/></g><g class="cls-10"><line class="cls-12" x1="199.22" y1="50.31" x2="198.77" y2="44.3"/></g><g class="cls-10"><line class="cls-12" x1="200.06" y1="59.44" x2="199.22" y2="50.31"/></g><g class="cls-10"><line class="cls-12" x1="201.04" y1="63.43" x2="200.06" y2="59.44"/></g><g class="cls-10"><line class="cls-12" x1="193.83" y1="49.89" x2="195.36" y2="46.25"/></g><g class="cls-10"><line class="cls-12" x1="199.73" y1="57.05" x2="193.83" y2="49.89"/></g><g class="cls-10"><line class="cls-12" x1="206.78" y1="59.85" x2="199.73" y2="57.05"/></g><g class="cls-10"><line class="cls-12" x1="209.21" y1="59.75" x2="206.78" y2="59.85"/></g><g class="cls-10"><line class="cls-12" x1="196.69" y1="64.62" x2="195.28" y2="64.8"/></g><g class="cls-10"><line class="cls-12" x1="193.51" y1="79.31" x2="196.69" y2="64.62"/></g><g class="cls-10"><line class="cls-12" x1="193.82" y1="90.56" x2="193.51" y2="79.31"/></g><g class="cls-10"><line class="cls-12" x1="192.9" y1="94.34" x2="193.82" y2="90.56"/></g><g class="cls-10"><line class="cls-12" x1="194.1" y1="65.96" x2="195.28" y2="64.8"/></g><g class="cls-10"><line class="cls-12" x1="192.26" y1="80.37" x2="194.1" y2="65.96"/></g><g class="cls-10"><line class="cls-12" x1="191.52" y1="92.13" x2="192.26" y2="80.37"/></g><g class="cls-10"><line class="cls-12" x1="195.15" y1="95.03" x2="191.52" y2="92.13"/></g><g class="cls-10"><line class="cls-12" x1="201.51" y1="64.43" x2="201.42" y2="63.16"/></g><g class="cls-10"><line class="cls-12" x1="201.42" y1="63.16" x2="201.04" y2="63.43"/></g><g class="cls-10"><line class="cls-12" x1="211.96" y1="60.03" x2="209.56" y2="59.25"/></g><g class="cls-10"><line class="cls-12" x1="209.56" y1="59.25" x2="209.21" y2="59.75"/></g></g><g class="cls-13"><rect class="cls-3" x="21.01" y="-23.97" width="167.21" height="167.21"/><rect class="cls-3" x="25.31" y="-19.68" width="158.63" height="158.63"/><g class="cls-14"><line class="cls-15" x1="107.35" y1="71.43" x2="106.17" y2="57.94"/></g><g class="cls-14"><line class="cls-15" x1="106.17" y1="57.94" x2="105.47" y2="48.3"/></g><g class="cls-14"><line class="cls-15" x1="105.23" y1="45.3" x2="105.47" y2="48.3"/></g><g class="cls-14"><line class="cls-15" x1="106.13" y1="39.91" x2="105.23" y2="45.3"/></g><g class="cls-14"><line class="cls-15" x1="109.9" y1="46.4" x2="105.47" y2="48.3"/></g><g class="cls-14"><line class="cls-15" x1="113.93" y1="56.58" x2="109.9" y2="46.4"/></g><g class="cls-14"><line class="cls-15" x1="122.13" y1="61.95" x2="113.93" y2="56.58"/></g><g class="cls-14"><line class="cls-15" x1="126.7" y1="61.45" x2="122.13" y2="61.95"/></g><g class="cls-14"><line class="cls-15" x1="104.6" y1="53.46" x2="105.47" y2="48.3"/></g><g class="cls-14"><line class="cls-15" x1="115.23" y1="59.47" x2="104.6" y2="53.46"/></g><g class="cls-14"><line class="cls-15" x1="126.13" y1="61.7" x2="115.23" y2="59.47"/></g><g class="cls-14"><line class="cls-15" x1="129.26" y1="62.1" x2="126.13" y2="61.7"/></g><g class="cls-14"><line class="cls-15" x1="109.39" y1="71.14" x2="107.35" y2="71.43"/></g><g class="cls-14"><line class="cls-15" x1="111.73" y1="71.86" x2="109.39" y2="71.14"/></g><g class="cls-14"><line class="cls-15" x1="104.91" y1="87.13" x2="111.73" y2="71.86"/></g><g class="cls-14"><line class="cls-15" x1="108.71" y1="89.6" x2="104.91" y2="87.13"/></g><g class="cls-14"><line class="cls-15" x1="106.32" y1="72.26" x2="107.35" y2="71.43"/></g><g class="cls-14"><line class="cls-15" x1="103.1" y1="81.69" x2="106.32" y2="72.26"/></g><g class="cls-14"><line class="cls-15" x1="100.52" y1="92.99" x2="103.1" y2="81.69"/></g><g class="cls-14"><line class="cls-15" x1="104.39" y1="95.43" x2="100.52" y2="92.99"/></g><g class="cls-14"><line class="cls-15" x1="129.07" y1="62.21" x2="128.59" y2="62.76"/></g><g class="cls-14"><line class="cls-15" x1="128.59" y1="62.76" x2="126.7" y2="61.45"/></g><g class="cls-14"><line class="cls-15" x1="132.07" y1="62.94" x2="129.08" y2="63.27"/></g><g class="cls-14"><line class="cls-15" x1="129.08" y1="63.27" x2="129.26" y2="62.1"/></g><g class="cls-14"><line class="cls-16" x1="146.78" y1="73.23" x2="149.16" y2="61.69"/></g><g class="cls-14"><line class="cls-16" x1="149.16" y1="61.69" x2="150.89" y2="53.18"/></g><g class="cls-14"><line class="cls-16" x1="151.44" y1="50.41" x2="150.89" y2="53.18"/></g><g class="cls-14"><line class="cls-16" x1="151.2" y1="45.31" x2="151.44" y2="50.41"/></g><g class="cls-14"><line class="cls-16" x1="151.74" y1="57.46" x2="150.89" y2="53.18"/></g><g class="cls-14"><line class="cls-16" x1="147.27" y1="66.77" x2="151.74" y2="57.46"/></g><g class="cls-14"><line class="cls-16" x1="143.29" y1="72.59" x2="147.27" y2="66.77"/></g><g class="cls-14"><line class="cls-16" x1="141.84" y1="73.97" x2="143.29" y2="72.59"/></g><g class="cls-14"><line class="cls-16" x1="146.99" y1="50.48" x2="150.89" y2="53.18"/></g><g class="cls-14"><line class="cls-16" x1="146.39" y1="61.32" x2="146.99" y2="50.48"/></g><g class="cls-14"><line class="cls-16" x1="140.77" y1="63.53" x2="146.39" y2="61.32"/></g><g class="cls-14"><line class="cls-16" x1="137.18" y1="63.48" x2="140.77" y2="63.53"/></g><g class="cls-14"><line class="cls-16" x1="148.24" y1="74.2" x2="146.78" y2="73.23"/></g><g class="cls-14"><line class="cls-16" x1="148.74" y1="87.68" x2="148.24" y2="74.2"/></g><g class="cls-14"><line class="cls-16" x1="150.68" y1="100.01" x2="148.74" y2="87.68"/></g><g class="cls-14"><line class="cls-16" x1="146.8" y1="102.7" x2="150.68" y2="100.01"/></g><g class="cls-14"><line class="cls-16" x1="145.17" y1="73.19" x2="146.78" y2="73.23"/></g><g class="cls-14"><line class="cls-16" x1="149.88" y1="88.09" x2="145.17" y2="73.19"/></g><g class="cls-14"><line class="cls-16" x1="152.2" y1="95.94" x2="149.88" y2="88.09"/></g><g class="cls-14"><line class="cls-16" x1="148.3" y1="98.67" x2="152.2" y2="95.94"/></g><g class="cls-14"><line class="cls-16" x1="140" y1="74.63" x2="140" y2="72.75"/></g><g class="cls-14"><line class="cls-16" x1="140" y1="72.75" x2="141.84" y2="73.97"/></g><g class="cls-14"><line class="cls-16" x1="134.9" y1="65.05" x2="135.54" y2="62.94"/></g><g class="cls-14"><line class="cls-16" x1="135.54" y1="62.94" x2="137.18" y2="63.48"/></g></g><g class="cls-17"><rect class="cls-3" x="-68.53" y="-23.97" width="164.66" height="164.66"/><rect class="cls-3" x="-64.3" y="-19.74" width="156.21" height="156.21"/><g class="cls-18"><line class="cls-19" x1="15.97" y1="70.24" x2="17.16" y2="56.8"/></g><g class="cls-18"><line class="cls-19" x1="17.16" y1="56.8" x2="18.25" y2="46.87"/></g><g class="cls-18"><line class="cls-19" x1="18.64" y1="43.63" x2="18.25" y2="46.87"/></g><g class="cls-18"><line class="cls-19" x1="23.33" y1="38.85" x2="18.64" y2="43.63"/></g><g class="cls-18"><line class="cls-19" x1="22.83" y1="45.36" x2="18.25" y2="46.87"/></g><g class="cls-18"><line class="cls-19" x1="24.72" y1="57.38" x2="22.83" y2="45.36"/></g><g class="cls-18"><line class="cls-19" x1="30.13" y1="65.38" x2="24.72" y2="57.38"/></g><g class="cls-18"><line class="cls-19" x1="34.08" y1="62.84" x2="30.13" y2="65.38"/></g><g class="cls-18"><line class="cls-19" x1="14.43" y1="50.77" x2="18.25" y2="46.87"/></g><g class="cls-18"><line class="cls-19" x1="20.89" y1="63.34" x2="14.43" y2="50.77"/></g><g class="cls-18"><line class="cls-19" x1="31.84" y1="63.98" x2="20.89" y2="63.34"/></g><g class="cls-18"><line class="cls-19" x1="34.28" y1="62.52" x2="31.84" y2="63.98"/></g><g class="cls-18"><line class="cls-19" x1="17.76" y1="69.78" x2="15.97" y2="70.24"/></g><g class="cls-18"><line class="cls-19" x1="18.38" y1="81.91" x2="17.76" y2="69.78"/></g><g class="cls-18"><line class="cls-19" x1="16.67" y1="95.16" x2="18.38" y2="81.91"/></g><g class="cls-18"><line class="cls-19" x1="18.66" y1="99.45" x2="16.67" y2="95.16"/></g><g class="cls-18"><line class="cls-19" x1="14.61" y1="71.8" x2="15.97" y2="70.24"/></g><g class="cls-18"><line class="cls-19" x1="11.44" y1="86.05" x2="14.61" y2="71.8"/></g><g class="cls-18"><line class="cls-19" x1="8.49" y1="99.59" x2="11.44" y2="86.05"/></g><g class="cls-18"><line class="cls-19" x1="9.72" y1="104.19" x2="8.49" y2="99.59"/></g><g class="cls-18"><line class="cls-19" x1="35.67" y1="62.64" x2="32.15" y2="63.7"/></g><g class="cls-18"><line class="cls-19" x1="32.15" y1="63.7" x2="34.08" y2="62.84"/></g><g class="cls-18"><line class="cls-19" x1="35.72" y1="62.92" x2="34.02" y2="61.98"/></g><g class="cls-18"><line class="cls-19" x1="34.02" y1="61.98" x2="34.28" y2="62.52"/></g><g class="cls-18"><line class="cls-20" x1="61.49" y1="72.11" x2="60.07" y2="60.34"/></g><g class="cls-18"><line class="cls-20" x1="60.07" y1="60.34" x2="58.94" y2="51.53"/></g><g class="cls-18"><line class="cls-20" x1="58.55" y1="48.65" x2="58.94" y2="51.53"/></g><g class="cls-18"><line class="cls-20" x1="54.82" y1="43.88" x2="58.55" y2="48.65"/></g><g class="cls-18"><line class="cls-20" x1="63.23" y1="55.72" x2="58.94" y2="51.53"/></g><g class="cls-18"><line class="cls-20" x1="56.07" y1="64.39" x2="63.23" y2="55.72"/></g><g class="cls-18"><line class="cls-20" x1="45.15" y1="62.78" x2="56.07" y2="64.39"/></g><g class="cls-18"><line class="cls-20" x1="43.35" y1="62.81" x2="45.15" y2="62.78"/></g><g class="cls-18"><line class="cls-20" x1="53.44" y1="52.11" x2="58.94" y2="51.53"/></g><g class="cls-18"><line class="cls-20" x1="45.89" y1="57.35" x2="53.44" y2="52.11"/></g><g class="cls-18"><line class="cls-20" x1="40.27" y1="56.46" x2="45.89" y2="57.35"/></g><g class="cls-18"><line class="cls-20" x1="38.81" y1="57.06" x2="40.27" y2="56.46"/></g><g class="cls-18"><line class="cls-20" x1="63.09" y1="73.19" x2="61.49" y2="72.11"/></g><g class="cls-18"><line class="cls-20" x1="66.84" y1="84.87" x2="63.09" y2="73.19"/></g><g class="cls-18"><line class="cls-20" x1="66.92" y1="97.34" x2="66.84" y2="84.87"/></g><g class="cls-18"><line class="cls-20" x1="63.06" y1="100.78" x2="66.92" y2="97.34"/></g><g class="cls-18"><line class="cls-20" x1="59.63" y1="71.84" x2="61.49" y2="72.11"/></g><g class="cls-18"><line class="cls-20" x1="59.66" y1="83.33" x2="59.63" y2="71.84"/></g><g class="cls-18"><line class="cls-20" x1="60.05" y1="94.22" x2="59.66" y2="83.33"/></g><g class="cls-18"><line class="cls-20" x1="57.8" y1="97.63" x2="60.05" y2="94.22"/></g><g class="cls-18"><line class="cls-20" x1="38.59" y1="62.37" x2="43.52" y2="64.32"/></g><g class="cls-18"><line class="cls-20" x1="43.52" y1="64.32" x2="43.35" y2="62.81"/></g><g class="cls-18"><line class="cls-20" x1="38.65" y1="57.38" x2="38.5" y2="56.76"/></g><g class="cls-18"><line class="cls-20" x1="38.5" y1="56.76" x2="38.81" y2="57.06"/></g></g></g><g id="图层_8" data-name="图层 8"><g class="cls-21"><rect class="cls-3" x="261.13" y="-48.99" width="223.36" height="223.36"/><rect class="cls-3" x="266.86" y="-43.25" width="211.89" height="211.89"/><g class="cls-22"><line class="cls-23" x1="340.42" y1="49.16" x2="343.1" y2="55.91"/></g><g class="cls-22"><line class="cls-23" x1="335.5" y1="55.64" x2="343.1" y2="55.91"/></g><g class="cls-22"><line class="cls-23" x1="335.98" y1="57.92" x2="335.5" y2="55.64"/></g><g class="cls-22"><line class="cls-23" x1="344.9" y1="55.26" x2="335.98" y2="57.92"/></g><g class="cls-22"><line class="cls-23" x1="350.91" y1="56.48" x2="343.1" y2="55.91"/></g><g class="cls-22"><line class="cls-23" x1="352.86" y1="71.51" x2="350.91" y2="56.48"/></g><g class="cls-22"><line class="cls-23" x1="355.03" y1="78.66" x2="352.86" y2="71.51"/></g><g class="cls-22"><line class="cls-23" x1="345.26" y1="63.27" x2="343.1" y2="55.91"/></g><g class="cls-22"><line class="cls-23" x1="341.01" y1="70.86" x2="345.26" y2="63.27"/></g><g class="cls-22"><line class="cls-23" x1="329.03" y1="84.2" x2="341.01" y2="70.86"/></g><g class="cls-22"><line class="cls-23" x1="326.7" y1="99.57" x2="329.03" y2="84.2"/></g><g class="cls-22"><line class="cls-23" x1="333.9" y1="104.03" x2="342.62" y2="87.3"/></g><g class="cls-22"><line class="cls-23" x1="342.62" y1="87.3" x2="352.13" y2="71.88"/></g><g class="cls-22"><line class="cls-23" x1="352.13" y1="71.88" x2="345.26" y2="63.27"/></g><g class="cls-22"><line class="cls-24" x1="290.28" y1="42.9" x2="284.46" y2="49.24"/></g><g class="cls-22"><line class="cls-24" x1="286.29" y1="48.92" x2="284.46" y2="49.24"/></g><g class="cls-22"><line class="cls-24" x1="283.36" y1="57.61" x2="286.29" y2="48.92"/></g><g class="cls-22"><line class="cls-24" x1="303.23" y1="54.19" x2="283.36" y2="57.61"/></g><g class="cls-22"><line class="cls-24" x1="282.88" y1="49.53" x2="284.46" y2="49.24"/></g><g class="cls-22"><line class="cls-24" x1="277.43" y1="58.09" x2="282.88" y2="49.53"/></g><g class="cls-22"><line class="cls-24" x1="282.13" y1="62.98" x2="277.43" y2="58.09"/></g><g class="cls-22"><line class="cls-24" x1="278.75" y1="57.3" x2="284.46" y2="49.24"/></g><g class="cls-22"><line class="cls-24" x1="273.94" y1="67.17" x2="278.75" y2="57.3"/></g><g class="cls-22"><line class="cls-24" x1="289.39" y1="84.98" x2="273.94" y2="67.17"/></g><g class="cls-22"><line class="cls-24" x1="305.08" y1="104.62" x2="289.39" y2="84.98"/></g><g class="cls-22"><line class="cls-24" x1="272.52" y1="103.02" x2="272.15" y2="84.58"/></g><g class="cls-22"><line class="cls-24" x1="272.15" y1="84.58" x2="271.13" y2="65.97"/></g><g class="cls-22"><line class="cls-24" x1="271.13" y1="65.97" x2="278.75" y2="57.3"/></g></g><g class="cls-25"><rect class="cls-3" x="356.9" y="-49.39" width="223.36" height="223.36"/><rect class="cls-3" x="362.63" y="-43.65" width="211.89" height="211.89"/><g class="cls-26"><line class="cls-23" x1="447.49" y1="51.8" x2="448.83" y2="60.24"/></g><g class="cls-26"><line class="cls-23" x1="442.3" y1="57.65" x2="448.83" y2="60.24"/></g><g class="cls-26"><line class="cls-23" x1="441.91" y1="60.3" x2="442.3" y2="57.65"/></g><g class="cls-26"><line class="cls-23" x1="453.31" y1="62.06" x2="441.91" y2="60.3"/></g><g class="cls-26"><line class="cls-23" x1="455.68" y1="63.25" x2="448.83" y2="60.24"/></g><g class="cls-26"><line class="cls-23" x1="442.72" y1="73.77" x2="455.68" y2="63.25"/></g><g class="cls-26"><line class="cls-23" x1="440.36" y1="81.42" x2="442.72" y2="73.77"/></g><g class="cls-26"><line class="cls-23" x1="444.21" y1="66.26" x2="448.83" y2="60.24"/></g><g class="cls-26"><line class="cls-23" x1="435.5" y1="70.81" x2="444.21" y2="66.26"/></g><g class="cls-26"><line class="cls-23" x1="422.42" y1="83.63" x2="435.5" y2="70.81"/></g><g class="cls-26"><line class="cls-23" x1="412.71" y1="97.57" x2="422.42" y2="83.63"/></g><g class="cls-26"><line class="cls-23" x1="433.5" y1="110.68" x2="438.79" y2="92.26"/></g><g class="cls-26"><line class="cls-23" x1="438.79" y1="92.26" x2="443.78" y2="74.92"/></g><g class="cls-26"><line class="cls-23" x1="443.78" y1="74.92" x2="444.21" y2="66.26"/></g><g class="cls-26"><line class="cls-24" x1="398.64" y1="41.43" x2="393.35" y2="47.97"/></g><g class="cls-26"><line class="cls-24" x1="386.52" y1="47.39" x2="393.35" y2="47.97"/></g><g class="cls-26"><line class="cls-24" x1="379.72" y1="57.51" x2="386.52" y2="47.39"/></g><g class="cls-26"><line class="cls-24" x1="399.8" y1="52.58" x2="379.72" y2="57.51"/></g><g class="cls-26"><line class="cls-24" x1="399.44" y1="48.7" x2="393.35" y2="47.97"/></g><g class="cls-26"><line class="cls-24" x1="407.44" y1="47.18" x2="399.44" y2="48.7"/></g><g class="cls-26"><line class="cls-24" x1="424.85" y1="47.59" x2="407.44" y2="47.18"/></g><g class="cls-26"><line class="cls-24" x1="387.49" y1="56.18" x2="393.35" y2="47.97"/></g><g class="cls-26"><line class="cls-24" x1="376.91" y1="65.82" x2="387.49" y2="56.18"/></g><g class="cls-26"><line class="cls-24" x1="389.25" y1="85.55" x2="376.91" y2="65.82"/></g><g class="cls-26"><line class="cls-24" x1="399.44" y1="106.4" x2="389.25" y2="85.55"/></g><g class="cls-26"><line class="cls-24" x1="366.07" y1="99.83" x2="371.16" y2="82.27"/></g><g class="cls-26"><line class="cls-24" x1="371.16" y1="82.27" x2="385.28" y2="64.79"/></g><g class="cls-26"><line class="cls-24" x1="385.28" y1="64.79" x2="387.49" y2="56.18"/></g></g></g><g id="图层_3" data-name="图层 3"><line class="cls-27" x1="594.55" y1="46.38" x2="578.62" y2="69.56"/><line class="cls-27" x1="595.02" y1="88.05" x2="578.62" y2="69.56"/><line class="cls-27" x1="610.92" y1="65.59" x2="594.52" y2="47.11"/><line class="cls-27" x1="667.91" y1="60.38" x2="651.45" y2="43.91"/><line class="cls-27" x1="652.76" y1="82.01" x2="637.29" y2="64.58"/><line class="cls-27" x1="610.69" y1="65.59" x2="594.75" y2="88.78"/><line class="cls-27" x1="651.45" y1="43.91" x2="637.29" y2="64.58"/><line class="cls-27" x1="667.91" y1="60.38" x2="652.76" y2="82.01"/><line class="cls-27" x1="637.29" y1="64.58" x2="578.62" y2="69.56"/><line class="cls-27" x1="651.45" y1="43.91" x2="594.52" y2="47.11"/><line class="cls-27" x1="652.76" y1="82.01" x2="595.02" y2="88.05"/><line class="cls-27" x1="667.91" y1="60.38" x2="610.92" y2="65.59"/></g><g id="图层_5" data-name="图层 5"><line class="cls-28" x1="651.77" y1="87.96" x2="659.49" y2="94.66"/><line class="cls-28" x1="659.49" y1="94.66" x2="664.96" y2="99.81"/><line class="cls-28" x1="664.96" y1="99.81" x2="674.28" y2="103.9"/><line class="cls-28" x1="674.28" y1="103.9" x2="688.15" y2="103.31"/><line class="cls-28" x1="657.81" y1="71.58" x2="662.49" y2="76.95"/><line class="cls-28" x1="662.49" y1="76.95" x2="665.94" y2="82.15"/><line class="cls-28" x1="665.81" y1="82.4" x2="671.3" y2="90.06"/><line class="cls-28" x1="667.66" y1="69.45" x2="672.13" y2="74.68"/><line class="cls-28" x1="672.13" y1="74.68" x2="677.94" y2="83.55"/><line class="cls-28" x1="676.21" y1="69.38" x2="680.68" y2="70.4"/><line class="cls-28" x1="680.68" y1="70.4" x2="685.29" y2="71.6"/><line class="cls-28" x1="685.29" y1="71.6" x2="689.74" y2="76.28"/><line class="cls-28" x1="684.83" y1="78.83" x2="678.06" y2="72.06"/><line class="cls-28" x1="673.4" y1="68.43" x2="678.06" y2="72.06"/><line class="cls-28" x1="663.46" y1="64.21" x2="667.66" y2="69.45"/><line class="cls-28" x1="668.74" y1="66.83" x2="673.4" y2="68.43"/></g><g id="图层_6" data-name="图层 6"><line class="cls-27" x1="517.16" y1="25.29" x2="538.34" y2="48.74"/><line class="cls-27" x1="516.48" y1="59.41" x2="517.16" y2="25.29"/><line class="cls-27" x1="537.99" y1="82.55" x2="538.34" y2="48.74"/><line class="cls-27" x1="516.48" y1="59.41" x2="537.99" y2="82.55"/><line class="cls-27" x1="482.67" y1="71.4" x2="484.82" y2="37.01"/><line class="cls-27" x1="484.82" y1="37.01" x2="517.16" y2="25.29"/><line class="cls-27" x1="482.67" y1="71.4" x2="516.09" y2="59.78"/><line class="cls-27" x1="505.37" y1="93.55" x2="537.99" y2="82.55"/><line class="cls-27" x1="505.37" y1="93.55" x2="482.67" y2="71.4"/><line class="cls-27" x1="505.37" y1="93.55" x2="507.27" y2="59.57"/><line class="cls-27" x1="507.27" y1="59.57" x2="538.17" y2="48.17"/><line class="cls-27" x1="484.82" y1="37.01" x2="507.27" y2="59.57"/><line class="cls-28" x1="544.93" y1="111.96" x2="559.52" y2="114.81"/><line class="cls-28" x1="539.44" y1="100.47" x2="544.93" y2="111.96"/><line class="cls-28" x1="534.72" y1="90.64" x2="539.44" y2="100.47"/><line class="cls-28" x1="544.29" y1="77.66" x2="545.85" y2="82.54"/><line class="cls-28" x1="528.97" y1="76.56" x2="531.91" y2="79.53"/><line class="cls-28" x1="541.55" y1="71.74" x2="544.41" y2="77.9"/><line class="cls-28" x1="541.55" y1="73.98" x2="541.55" y2="71.74"/><line class="cls-28" x1="549.4" y1="70.02" x2="554.57" y2="79.21"/><line class="cls-28" x1="547.61" y1="71.74" x2="549.4" y2="70.02"/><line class="cls-28" x1="548.18" y1="79.21" x2="547.61" y2="71.74"/><line class="cls-28" x1="559.87" y1="70.28" x2="561.72" y2="78.05"/><line class="cls-28" x1="556.35" y1="65.59" x2="559.87" y2="70.28"/><line class="cls-28" x1="553.87" y1="63.45" x2="556.35" y2="65.59"/><line class="cls-28" x1="532.32" y1="79.33" x2="538.34" y2="89.75"/><line class="cls-29" x1="504.63" y1="88.85" x2="516.82" y2="82.47"/><line class="cls-29" x1="495.72" y1="94.85" x2="504.63" y2="88.85"/><line class="cls-29" x1="484.82" y1="99.89" x2="495.72" y2="94.85"/><line class="cls-29" x1="488.76" y1="71.74" x2="494.5" y2="57.19"/><line class="cls-29" x1="494.5" y1="57.19" x2="500.16" y2="50.34"/><line class="cls-29" x1="500.16" y1="50.34" x2="507.46" y2="45.51"/><line class="cls-29" x1="497.06" y1="45.51" x2="504.46" y2="40.98"/><line class="cls-29" x1="484.42" y1="63.89" x2="490.8" y2="50.68"/><line class="cls-29" x1="490.8" y1="50.68" x2="497.06" y2="45.51"/><line class="cls-29" x1="489.59" y1="45.96" x2="498.08" y2="38.3"/><line class="cls-29" x1="484.35" y1="51.64" x2="489.59" y2="45.96"/><line class="cls-29" x1="478.04" y1="64.47" x2="484.35" y2="51.64"/><line class="cls-29" x1="478.61" y1="56.68" x2="474.21" y2="65.59"/><line class="cls-29" x1="478.87" y1="56.35" x2="484.35" y2="51.64"/><line class="cls-29" x1="484.35" y1="51.64" x2="490.75" y2="44.91"/><line class="cls-29" x1="605.18" y1="90.32" x2="591.32" y2="92.3"/><line class="cls-29" x1="616.77" y1="86.3" x2="605.18" y2="90.32"/><line class="cls-29" x1="625.7" y1="80.6" x2="616.77" y2="86.3"/><line class="cls-29" x1="636.34" y1="73.3" x2="625.7" y2="80.6"/><line class="cls-29" x1="613.87" y1="59.57" x2="608.68" y2="70.38"/><line class="cls-29" x1="618.81" y1="52.68" x2="613.87" y2="59.57"/><line class="cls-29" x1="625.36" y1="47.23" x2="618.81" y2="52.68"/><line class="cls-29" x1="609.53" y1="53.7" x2="602.37" y2="63.46"/><line class="cls-29" x1="615.83" y1="49.62" x2="609.53" y2="53.7"/><line class="cls-29" x1="622.09" y1="46.64" x2="615.83" y2="49.62"/><line class="cls-29" x1="604.09" y1="53.28" x2="596.09" y2="61.32"/><line class="cls-29" x1="610.13" y1="49.96" x2="604.09" y2="53.28"/><line class="cls-29" x1="616.77" y1="47.06" x2="610.13" y2="49.96"/><line class="cls-29" x1="597.11" y1="54.25" x2="592.17" y2="60.85"/><line class="cls-29" x1="602.3" y1="51.66" x2="597.11" y2="54.25"/><line class="cls-29" x1="607.95" y1="49.02" x2="602.3" y2="51.66"/><line class="cls-29" x1="610.14" y1="49.55" x2="607.95" y2="49.02"/></g><g id="图层_2" data-name="图层 2"><text class="cls-30" transform="translate(88.47 147.83)">(a) NTU Mutual</text><text class="cls-30" transform="translate(286.97 147.83)">(b) SBU-Kinect-Interaction</text><text class="cls-30" transform="translate(558.11 147.83)">(c) H2O</text><text class="cls-30" transform="translate(764.43 147.83)">(d)<tspan class="cls-31" x="14.67" y="0"> </tspan><tspan x="17.34" y="0">Assembly101</tspan></text><text class="cls-30" transform="translate(12.63 12.34)">Exchange<tspan x="8.68" y="14.4">Things</tspan></text><text class="cls-30" transform="translate(108.71 12.34)">Giving<tspan x="-0.33" y="14.4">Object</tspan></text><text class="cls-30" transform="translate(189.99 12.34)">Shaking<tspan x="4.34" y="14.4">Hands</tspan></text><text class="cls-30" transform="translate(59.84 127.18)">similar interactive actions </text><line class="cls-32" x1="38.53" y1="69.56" x2="45.98" y2="123.6"/><line class="cls-32" x1="45.98" y1="123.6" x2="56.67" y2="123.6"/><line class="cls-32" x1="133.26" y1="68.15" x2="133.26" y2="108.17"/><line class="cls-32" x1="211.74" y1="68.15" x2="204.09" y2="123.6"/><line class="cls-32" x1="204.09" y1="123.6" x2="197.11" y2="123.6"/><circle class="cls-33" cx="38.53" cy="69.56" r="1.42"/><circle class="cls-33" cx="133.26" cy="68.15" r="1.42"/><circle class="cls-33" cx="211.74" cy="68.15" r="1.42"/><line class="cls-32" x1="133.26" y1="108.17" x2="125.72" y2="116.15"/><text class="cls-30" transform="translate(599.34 17.32)">Open Chips</text><text class="cls-30" transform="translate(470.22 17.32)"><tspan class="cls-34">T</tspan><tspan x="6" y="0">ake Out Cocoa</tspan></text><text class="cls-30" transform="translate(516.41 127.18)">three interacting entites</text><line class="cls-32" x1="676.94" y1="91.31" x2="655.34" y2="124.23"/><line class="cls-32" x1="655.34" y1="124.23" x2="644.66" y2="124.23"/><circle class="cls-33" cx="676.94" cy="91.31" r="1.42"/><line class="cls-32" x1="624.8" y1="65.64" x2="655.34" y2="124.23"/><circle class="cls-33" cx="624.8" cy="65.64" r="1.42"/><line class="cls-32" x1="601.44" y1="67.63" x2="655.34" y2="124.23"/><circle class="cls-33" cx="601.44" cy="67.63" r="1.42"/><line class="cls-32" x1="512.94" y1="124.85" x2="502.25" y2="124.85"/><line class="cls-32" x1="550.72" y1="91.31" x2="502.25" y2="124.85"/><circle class="cls-33" cx="550.72" cy="91.31" r="1.42"/><line class="cls-32" x1="510.73" y1="59.64" x2="502.25" y2="124.85"/><circle class="cls-33" cx="510.73" cy="59.64" r="1.42"/><line class="cls-32" x1="482.61" y1="67.63" x2="502.25" y2="124.85"/><circle class="cls-33" cx="482.61" cy="67.63" r="1.42"/><text class="cls-30" transform="translate(756.5 17.32)">Pick Up Screw</text><text class="cls-30" transform="translate(728.66 127.18)">1380 classes (verb + noun)</text><text class="cls-30" transform="translate(750.84 78.05)">absent object pose</text><line class="cls-32" x1="886.72" y1="123.56" x2="876.04" y2="123.56"/><line class="cls-32" x1="886.72" y1="14.01" x2="886.72" y2="123.56"/><line class="cls-32" x1="886.72" y1="14.01" x2="840.26" y2="14.01"/><circle class="cls-33" cx="840.26" cy="14.01" r="1.42"/><line class="cls-32" x1="864.53" y1="74.64" x2="853.84" y2="74.64"/><line class="cls-32" x1="860.59" y1="54.89" x2="864.53" y2="74.64"/><line class="cls-32" x1="747.76" y1="74.64" x2="737.07" y2="74.64"/><line class="cls-32" x1="781.53" y1="47.13" x2="737.07" y2="74.64"/><circle class="cls-33" cx="781.53" cy="47.13" r="1.42"/><circle class="cls-33" cx="860.59" cy="54.89" r="1.42"/><text class="cls-30" transform="translate(324.77 127.18)">short duration</text><line class="cls-32" x1="408.26" y1="123.6" x2="397.57" y2="123.6"/><line class="cls-32" x1="310.89" y1="123.6" x2="321.57" y2="123.6"/><line class="cls-32" x1="408.26" y1="110.55" x2="408.26" y2="123.6"/><line class="cls-32" x1="310.89" y1="110.55" x2="310.89" y2="123.6"/><circle class="cls-33" cx="310.89" cy="110.55" r="1.42"/><circle class="cls-33" cx="408.26" cy="110.55" r="1.42"/><text class="cls-30" transform="translate(336.44 17.32)">Punching</text><text class="cls-35" transform="translate(335.9 31.15)">(19 frames)</text></g></svg>